<svg width="166" height="169" viewBox="0 0 166 169" fill="none" xmlns="http://www.w3.org/2000/svg">
<g clip-path="url(#clip0_1_10)">
<path d="M124.5 14.0833H41.5C33.8601 14.0833 27.6667 20.3887 27.6667 28.1667V140.833C27.6667 148.611 33.8601 154.917 41.5 154.917H124.5C132.14 154.917 138.333 148.611 138.333 140.833V28.1667C138.333 20.3887 132.14 14.0833 124.5 14.0833Z" stroke="black" stroke-width="10" stroke-linecap="round" stroke-linejoin="round"/>
<path d="M13.8333 42.25H41.5" stroke="black" stroke-width="8" stroke-linecap="round" stroke-linejoin="round"/>
<path d="M13.8333 70.4167H41.5" stroke="black" stroke-width="8" stroke-linecap="round" stroke-linejoin="round"/>
<path d="M13.8333 98.5833H41.5" stroke="black" stroke-width="8" stroke-linecap="round" stroke-linejoin="round"/>
<path d="M13.8333 126.75H41.5" stroke="black" stroke-width="8" stroke-linecap="round" stroke-linejoin="round"/>
<path d="M108.453 90.3058H149.123V131.711" stroke="#23CF00" stroke-width="10" stroke-linecap="round" stroke-linejoin="round"/>
<path d="M149.123 90.3058L91.5075 148.963L57.6158 114.459L13.5567 159.314" stroke="#23CF00" stroke-width="10" stroke-linecap="round" stroke-linejoin="round"/>
<path d="M56.3731 45.2461C55.9041 43.0917 55.9761 40.8514 56.5826 38.7329C57.189 36.6145 58.3103 34.6864 59.8423 33.1276C61.3744 31.5687 63.2678 30.4295 65.3468 29.8156C67.4258 29.2017 69.6231 29.1329 71.7351 29.6157C72.8976 27.762 74.499 26.2365 76.3918 25.1799C78.2845 24.1232 80.4077 23.5693 82.5656 23.5693C84.7236 23.5693 86.8468 24.1232 88.7395 25.1799C90.6323 26.2365 92.2337 27.762 93.3962 29.6157C95.5114 29.1308 97.7125 29.1993 99.7948 29.8147C101.877 30.4301 103.773 31.5725 105.306 33.1355C106.839 34.6986 107.959 36.6316 108.563 38.7548C109.167 40.8779 109.234 43.1222 108.758 45.2789C110.576 46.4642 112.072 48.097 113.109 50.0269C114.145 51.9567 114.688 54.1215 114.688 56.3218C114.688 58.522 114.145 60.6868 113.109 62.6167C112.072 64.5466 110.576 66.1794 108.758 67.3646C109.232 69.5181 109.164 71.7585 108.562 73.8783C107.96 75.998 106.843 77.9285 105.314 79.4906C103.785 81.0527 101.894 82.196 99.8163 82.8143C97.7385 83.4327 95.5413 83.5061 93.4283 83.0278C92.2674 84.8886 90.6647 86.4206 88.7687 87.4821C86.8727 88.5435 84.7447 89.0999 82.5817 89.0999C80.4187 89.0999 78.2907 88.5435 76.3947 87.4821C74.4987 86.4206 72.8961 84.8886 71.7351 83.0278C69.6231 83.5106 67.4258 83.4419 65.3468 82.828C63.2678 82.214 61.3744 81.0748 59.8423 79.516C58.3103 77.9571 57.189 76.0291 56.5826 73.9106C55.9761 71.7921 55.9041 69.5518 56.3731 67.3974C54.5411 66.2153 53.0321 64.5799 51.9865 62.6435C50.9408 60.707 50.3925 58.5323 50.3925 56.3218C50.3925 54.1112 50.9408 51.9366 51.9865 50.0001C53.0321 48.0636 54.5411 46.4283 56.3731 45.2461Z" fill="#D9F500" stroke="black" stroke-width="8" stroke-linecap="round" stroke-linejoin="round"/>
<path d="M72.9242 42.2145L82.5657 52.045V74.9827" stroke="black" stroke-width="5" stroke-linecap="round" stroke-linejoin="round"/>
<path d="M82.5657 52.045L92.2071 42.2145" stroke="black" stroke-width="5" stroke-linecap="round" stroke-linejoin="round"/>
<path d="M72.9242 55.3218H92.2071" stroke="black" stroke-width="5" stroke-linecap="round" stroke-linejoin="round"/>
<path d="M72.9242 68.429H92.2071" stroke="black" stroke-width="5" stroke-linecap="round" stroke-linejoin="round"/>
</g>
<defs>
<clipPath id="clip0_1_10">
<rect width="166" height="169" fill="white"/>
</clipPath>
</defs>
</svg>
